HIERARCHY
ROOT joint_0
{
	OFFSET 0.000000 0.000000 0.000000
	CHANNELS 6 Xposition Yposition Zposition Zrotation Yrotation Xrotation 
	JOINT joint_1
	{
		OFFSET 4.520508 -1.939880 86.268921
		CHANNELS 3 Zrotation Yrotation Xrotation
		JOINT joint_2
		{
			OFFSET -4.459717 -0.438538 78.934082
			CHANNELS 3 Zrotation Yrotation Xrotation
			JOINT joint_3
			{
				OFFSET -5.197754 -0.781128 78.796997
				CHANNELS 3 Zrotation Yrotation Xrotation
				JOINT joint_4
				{
					OFFSET 2.952026 -3.710571 109.812988
					CHANNELS 3 Zrotation Yrotation Xrotation
					JOINT joint_5
					{
						OFFSET 24.716797 -5.488037 87.903931
						CHANNELS 3 Zrotation Yrotation Xrotation
						End Site
						{
							OFFSET 0.000000 0.000000 0.000000
						}
					}
				}
				JOINT joint_6
				{
					OFFSET -3.154419 -25.484680 60.934937
					CHANNELS 3 Zrotation Yrotation Xrotation
					JOINT joint_7
					{
						OFFSET -28.997192 -144.472229 -32.671997
						CHANNELS 3 Zrotation Yrotation Xrotation
						JOINT joint_8
						{
							OFFSET 19.867676 -18.614380 -249.897949
							CHANNELS 3 Zrotation Yrotation Xrotation
							JOINT joint_9
							{
								OFFSET 5.281982 -13.816650 -264.993042
								CHANNELS 3 Zrotation Yrotation Xrotation
								End Site
								{
									OFFSET 0.000000 0.000000 0.000000
								}
							}
						}
					}
				}
				JOINT joint_10
				{
					OFFSET 6.494995 21.336792 62.257935
					CHANNELS 3 Zrotation Yrotation Xrotation
					JOINT joint_11
					{
						OFFSET 31.106567 145.200745 -27.007935
						CHANNELS 3 Zrotation Yrotation Xrotation
						JOINT joint_12
						{
							OFFSET 29.119141 24.684326 -248.460083
							CHANNELS 3 Zrotation Yrotation Xrotation
							JOINT joint_13
							{
								OFFSET 21.220093 31.248413 -262.703979
								CHANNELS 3 Zrotation Yrotation Xrotation
								End Site
								{
									OFFSET 0.000000 0.000000 0.000000
								}
							}
						}
					}
				}
			}
		}
	}
	JOINT joint_14
	{
		OFFSET -15.458496 -88.861694 -109.593018
		CHANNELS 3 Zrotation Yrotation Xrotation
		JOINT joint_15
		{
			OFFSET -6.193359 6.837952 -506.710999
			CHANNELS 3 Zrotation Yrotation Xrotation
			JOINT joint_16
			{
				OFFSET -35.096680 13.289795 -435.677025
				CHANNELS 3 Zrotation Yrotation Xrotation
				JOINT joint_17
				{
					OFFSET 158.491211 -33.916565 -71.771002
					CHANNELS 3 Zrotation Yrotation Xrotation
					End Site
					{
						OFFSET 0.000000 0.000000 0.000000
					}
				}
			}
		}
	}
	JOINT joint_18
	{
		OFFSET 23.116943 86.574158 -110.082031
		CHANNELS 3 Zrotation Yrotation Xrotation
		JOINT joint_19
		{
			OFFSET -6.125854 -0.283569 -506.757019
			CHANNELS 3 Zrotation Yrotation Xrotation
			JOINT joint_20
			{
				OFFSET -63.240234 11.589966 -432.537994
				CHANNELS 3 Zrotation Yrotation Xrotation
				JOINT joint_21
				{
					OFFSET 156.074219 -41.487305 -73.077999
					CHANNELS 3 Zrotation Yrotation Xrotation
					End Site
					{
						OFFSET 0.000000 0.000000 0.000000
					}
				}
			}
		}
	}
}
MOTION
Frames: 7
Frame Time: 0.016667
-384.475403 969.793396 1142.760010 -42.594312 1.891223 0.376566 -0.231523 -1.730600 -0.346498 -0.200238 0.346011 0.049020 -0.219295 -0.316268 -0.048237 -0.114199 1.658605 1.020129 0.000000 0.000000 0.000000 -0.040728 0.004488 -0.971170 0.113469 -0.095634 0.678465 -0.139869 1.307159 -0.779116 0.000000 0.000000 0.000000 0.340018 -0.487549 0.811885 0.830018 0.145018 -0.447045 1.203066 2.237425 2.009593 0.000000 0.000000 0.000000 0.232338 0.394618 -0.515366 0.169694 -1.460974 -0.511146 0.051144 0.828246 0.200808 0.000000 0.000000 0.000000 0.275642 0.937540 0.399612 0.302952 -1.273956 -0.299248 0.299547 0.363743 0.239166 0.000000 0.000000 0.000000 
-384.347839 969.763977 1142.776978 -42.582527 1.890569 0.380822 -0.254375 -1.758354 -0.339200 -0.224170 0.354075 0.044926 -0.243054 -0.323301 -0.046298 -0.106327 1.686017 0.996271 0.000000 0.000000 0.000000 0.006415 0.008705 -1.027912 0.123064 -0.101638 0.712862 -0.128507 1.256844 -0.777956 0.000000 0.000000 0.000000 0.390228 -0.484489 0.812629 0.834501 0.137509 -0.427485 1.206048 2.240419 2.014410 0.000000 0.000000 0.000000 0.230190 0.408628 -0.519993 0.166200 -1.473433 -0.517172 0.046483 0.832902 0.199667 0.000000 0.000000 0.000000 0.272638 0.945687 0.396933 0.300144 -1.279385 -0.309892 0.295549 0.370767 0.239104 0.000000 0.000000 0.000000 
-384.225800 969.737549 1142.790039 -42.569410 1.889989 0.386358 -0.277077 -1.781528 -0.331272 -0.247958 0.358421 0.040521 -0.266554 -0.326621 -0.043713 -0.097141 1.708845 0.964848 0.000000 0.000000 0.000000 0.049615 0.011798 -1.082509 0.131229 -0.107246 0.739176 -0.118204 1.211682 -0.776746 0.000000 0.000000 0.000000 0.435426 -0.482804 0.807846 0.840238 0.128325 -0.407577 1.210495 2.246047 2.021456 0.000000 0.000000 0.000000 0.227565 0.421386 -0.525844 0.162351 -1.483574 -0.523199 0.041570 0.834842 0.197831 0.000000 0.000000 0.000000 0.269024 0.952901 0.392104 0.296676 -1.283949 -0.318673 0.291172 0.377123 0.238683 0.000000 0.000000 0.000000 
-384.107819 969.715576 1142.796021 -42.554920 1.888956 0.392872 -0.299568 -1.799063 -0.321329 -0.271548 0.362520 0.036534 -0.289911 -0.329969 -0.041735 -0.086282 1.726217 0.924102 0.000000 0.000000 0.000000 0.089343 0.013909 -1.134042 0.137992 -0.111946 0.756908 -0.109144 1.172529 -0.777398 0.000000 0.000000 0.000000 0.474257 -0.482486 0.794308 0.848675 0.116763 -0.384486 1.218235 2.258378 2.032632 0.000000 0.000000 0.000000 0.224112 0.433545 -0.532550 0.157750 -1.491575 -0.529203 0.036011 0.833605 0.195020 0.000000 0.000000 0.000000 0.264588 0.960752 0.384752 0.292341 -1.289563 -0.324478 0.286471 0.382874 0.237947 0.000000 0.000000 0.000000 
-383.996124 969.695984 1142.798950 -42.540075 1.887973 0.400472 -0.321622 -1.813206 -0.311998 -0.294491 0.366609 0.034611 -0.312696 -0.332850 -0.040127 -0.074107 1.739354 0.876011 0.000000 0.000000 0.000000 0.125116 0.015416 -1.183370 0.143437 -0.115741 0.766597 -0.101081 1.138056 -0.778065 0.000000 0.000000 0.000000 0.507893 -0.483233 0.774984 0.858600 0.103655 -0.360281 1.227712 2.274326 2.045510 0.000000 0.000000 0.000000 0.220354 0.444423 -0.540325 0.152964 -1.497371 -0.535128 0.030381 0.830796 0.191841 0.000000 0.000000 0.000000 0.259705 0.967850 0.375579 0.287514 -1.294526 -0.328553 0.281533 0.388632 0.237099 0.000000 0.000000 0.000000 
-383.888885 969.670959 1142.801025 -42.526790 1.887005 0.408744 -0.342045 -1.827454 -0.302763 -0.315877 0.370004 0.031502 -0.333847 -0.334397 -0.037924 -0.059691 1.754036 0.819077 0.000000 0.000000 0.000000 0.157667 0.016250 -1.227998 0.145911 -0.118084 0.769370 -0.096882 1.120730 -0.779957 0.000000 0.000000 0.000000 0.538559 -0.483276 0.755875 0.867436 0.093032 -0.342834 1.236768 2.287865 2.060928 0.000000 0.000000 0.000000 0.217113 0.455536 -0.548437 0.148658 -1.503816 -0.541255 0.025139 0.827602 0.188758 0.000000 0.000000 0.000000 0.255447 0.974924 0.365198 0.283282 -1.299184 -0.331107 0.277361 0.394072 0.236534 0.000000 0.000000 0.000000 
-383.789825 969.637024 1142.801025 -42.516018 1.884040 0.418030 -0.359677 -1.840371 -0.296301 -0.334286 0.374505 0.029676 -0.352192 -0.337428 -0.037134 -0.042917 1.770423 0.752864 0.000000 0.000000 0.000000 0.184333 0.015888 -1.266062 0.144029 -0.119590 0.765639 -0.098663 1.129642 -0.783905 0.000000 0.000000 0.000000 0.563654 -0.482992 0.740141 0.875428 0.086569 -0.336072 1.246637 2.300772 2.082301 0.000000 0.000000 0.000000 0.215017 0.469234 -0.556669 0.145266 -1.511436 -0.548327 0.020589 0.824337 0.185977 0.000000 0.000000 0.000000 0.252329 0.983728 0.353921 0.280208 -1.302274 -0.333211 0.274274 0.398805 0.236302 0.000000 0.000000 0.000000 
